<svg width="58" height="57" viewBox="0 0 58 57" fill="none" xmlns="http://www.w3.org/2000/svg">
<path fill-rule="evenodd" clip-rule="evenodd" d="M3.34998 28.5001C3.34998 41.1969 12.584 51.7134 24.7677 53.8936L24.92 53.769C24.9121 53.7676 24.9041 53.7661 24.8961 53.7647V35.6814H18.4836V28.4994H24.8961V22.8564C24.8961 16.4439 29.0001 12.8529 34.8996 12.8529C36.6951 12.8529 38.7471 13.1094 40.5426 13.3659V19.9067H37.2081C34.1301 19.9067 33.3606 21.4457 33.3606 23.4977V28.4994H40.1579L39.0036 35.6814H33.3606V53.7647C33.2822 53.7789 33.2039 53.7928 33.1255 53.8063L33.2322 53.8936C45.416 51.7134 54.65 41.1969 54.65 28.5001C54.65 14.3926 43.1075 2.8501 29 2.8501C14.8925 2.8501 3.34998 14.3926 3.34998 28.5001Z" fill="url(#paint0_linear_9522_2266)"/>
<defs>
<linearGradient id="paint0_linear_9522_2266" x1="29.0013" y1="52.366" x2="29.0013" y2="2.84065" gradientUnits="userSpaceOnUse">
<stop stop-color="#0062E0"/>
<stop offset="1" stop-color="#19AFFF"/>
</linearGradient>
</defs>
</svg>
