<svg width="58" height="57" viewBox="0 0 58 57" fill="none" xmlns="http://www.w3.org/2000/svg">
<path fill-rule="evenodd" clip-rule="evenodd" d="M28.9998 3.48315C14.8282 3.48315 3.34979 14.9615 3.34979 29.1332C3.34979 40.4833 10.6921 50.07 20.888 53.4686C22.1705 53.693 22.6514 52.9235 22.6514 52.2502C22.6514 51.641 22.6194 49.6211 22.6194 47.4729C16.1748 48.6592 14.5075 45.9018 13.9945 44.459C13.706 43.7216 12.4555 41.4452 11.3654 40.836C10.4677 40.355 9.18517 39.1687 11.3334 39.1367C13.3533 39.1046 14.7961 40.9963 15.277 41.7658C17.5855 45.6453 21.2727 44.5552 22.7476 43.8819C22.972 42.2147 23.6454 41.0925 24.3828 40.4512C18.6757 39.81 12.712 37.5977 12.712 27.7865C12.712 24.9971 13.706 22.6886 15.3412 20.8931C15.0847 20.2518 14.1869 17.6227 15.5977 14.0958C15.5977 14.0958 17.7459 13.4225 22.6514 16.725C24.7034 16.1478 26.8837 15.8593 29.0639 15.8593C31.2442 15.8593 33.4244 16.1478 35.4764 16.725C40.382 13.3905 42.5302 14.0958 42.5302 14.0958C43.9409 17.6227 43.0432 20.2518 42.7867 20.8931C44.4219 22.6886 45.4158 24.965 45.4158 27.7865C45.4158 37.6297 39.4201 39.81 33.713 40.4512C34.6428 41.2528 35.4444 42.7918 35.4444 45.1965C35.4444 48.6272 35.4123 51.3845 35.4123 52.2502C35.4123 52.9235 35.8932 53.7251 37.1757 53.4686C47.3075 50.07 54.6498 40.4512 54.6498 29.1332C54.6498 14.9615 43.1714 3.48315 28.9998 3.48315Z" fill="#1B1F23"/>
</svg>
