<svg width="57" height="57" viewBox="0 0 57 57" fill="none" xmlns="http://www.w3.org/2000/svg">
<path d="M51.1498 2.8501H5.84979C4.19294 2.8501 2.84979 4.19324 2.84979 5.8501V51.1501C2.84979 52.807 4.19294 54.1501 5.84979 54.1501H51.1498C52.8066 54.1501 54.1498 52.807 54.1498 51.1501V5.8501C54.1498 4.19324 52.8066 2.8501 51.1498 2.8501Z" fill="#F7DF1E"/>
<path d="M34.0207 39.7532C35.066 41.4559 36.426 42.7075 38.8312 42.7075C40.8518 42.7075 42.1426 41.7 42.1426 40.3079C42.1426 38.6397 40.8164 38.0488 38.5924 37.0783L37.3732 36.5565C33.8543 35.0609 31.5166 33.1872 31.5166 29.2263C31.5166 25.5776 34.3032 22.8 38.6583 22.8C41.7587 22.8 43.9877 23.8766 45.594 26.6952L41.7966 29.1277C40.9605 27.6321 40.0586 27.0429 38.6583 27.0429C37.2299 27.0429 36.3247 27.9468 36.3247 29.1277C36.3247 30.5872 37.2307 31.178 39.323 32.082L40.5421 32.603C44.6854 34.3755 47.0248 36.1826 47.0248 40.2454C47.0248 44.6255 43.5759 47.0251 38.9441 47.0251C34.4153 47.0251 31.4894 44.872 30.0578 42.05L34.0207 39.7532ZM16.7943 40.1748C17.5603 41.5307 18.2572 42.6771 19.9326 42.6771C21.5348 42.6771 22.5455 42.0517 22.5455 39.6201V23.0778H27.4219V39.6858C27.4219 44.7233 24.4614 47.016 20.1402 47.016C16.2358 47.016 13.9747 45.0002 12.8248 42.5723L16.7943 40.1748Z" fill="black"/>
</svg>
