<svg width="58" height="57" viewBox="0 0 58 57" fill="none" xmlns="http://www.w3.org/2000/svg">
<path d="M43.9625 2.8501H14.0375C8.13584 2.8501 3.34998 7.63596 3.34998 13.5376V43.4626C3.34998 49.3642 8.13584 54.1501 14.0375 54.1501H43.9625C49.8663 54.1501 54.65 49.3642 54.65 43.4626V13.5376C54.65 7.63596 49.8663 2.8501 43.9625 2.8501ZM20.45 43.4626H14.0375V19.9501H20.45V43.4626ZM17.2437 17.2397C15.1789 17.2397 13.5031 15.5511 13.5031 13.4692C13.5031 11.3873 15.1789 9.69865 17.2437 9.69865C19.3086 9.69865 20.9844 11.3873 20.9844 13.4692C20.9844 15.5511 19.3107 17.2397 17.2437 17.2397ZM46.1 43.4626H39.6875V31.484C39.6875 24.2849 31.1375 24.83 31.1375 31.484V43.4626H24.725V19.9501H31.1375V23.7228C34.1214 18.1952 46.1 17.787 46.1 29.0152V43.4626Z" fill="#0077B5"/>
</svg>
