<svg width="57" height="57" viewBox="0 0 57 57" fill="none" xmlns="http://www.w3.org/2000/svg">
<path d="M51.1496 2.8501H5.84955C4.19269 2.8501 2.84955 4.19324 2.84955 5.8501V51.1501C2.84955 52.807 4.19269 54.1501 5.84955 54.1501H51.1495C52.8064 54.1501 54.1495 52.807 54.1495 51.1501V5.8501C54.1495 4.19324 52.8064 2.8501 51.1496 2.8501Z" fill="#61DAFB"/>
<path d="M28.5324 36.2967C39.8606 36.2967 49.044 32.7903 49.044 28.465C49.044 24.1397 39.8606 20.6333 28.5324 20.6333C17.2041 20.6333 8.02075 24.1397 8.02075 28.465C8.02075 32.7903 17.2041 36.2967 28.5324 36.2967Z" stroke="black" stroke-width="0.75"/>
<path d="M21.7492 32.3808C27.4133 42.1914 35.0416 48.3912 38.7874 46.2285C42.5333 44.0659 40.9782 34.3597 35.3141 24.5491C29.6499 14.7386 22.0217 8.53874 18.2758 10.7014C14.53 12.8641 16.085 22.5703 21.7492 32.3808Z" stroke="black" stroke-width="0.75"/>
<path d="M21.7494 24.5488C16.0853 34.3594 14.5302 44.0656 18.2761 46.2283C22.0219 48.3909 29.6502 42.1911 35.3143 32.3805C40.9785 22.57 42.5335 12.8638 38.7877 10.7011C35.0418 8.53844 27.4135 14.7383 21.7494 24.5488Z" stroke="black" stroke-width="0.75"/>
<path d="M28.5 31.9411C30.4012 31.9411 31.9424 30.3999 31.9424 28.4987C31.9424 26.5976 30.4012 25.0564 28.5 25.0564C26.5989 25.0564 25.0577 26.5976 25.0577 28.4987C25.0577 30.3999 26.5989 31.9411 28.5 31.9411Z" fill="black"/>
</svg>
