<svg width="57" height="57" viewBox="0 0 57 57" fill="none" xmlns="http://www.w3.org/2000/svg">
<path d="M51.15 2.8501H5.84998C4.19312 2.8501 2.84998 4.19324 2.84998 5.8501V51.1501C2.84998 52.807 4.19312 54.1501 5.84997 54.1501H51.15C52.8068 54.1501 54.15 52.807 54.15 51.1501V5.8501C54.15 4.19324 52.8068 2.8501 51.15 2.8501Z" fill="#3178C6"/>
<path fill-rule="evenodd" clip-rule="evenodd" d="M32.1537 40.491V45.7183C32.9444 46.1539 33.8796 46.4805 34.9592 46.6983C36.0388 46.9161 37.1767 47.0251 38.3729 47.0251C39.5387 47.0251 40.6461 46.9053 41.6954 46.6656C42.7446 46.4261 43.6646 46.0313 44.4553 45.4813C45.2459 44.9315 45.8719 44.2127 46.3331 43.3251C46.7944 42.4375 47.025 41.3404 47.025 40.0336C47.025 39.0861 46.8933 38.2558 46.6297 37.5425C46.3661 36.8293 45.986 36.1949 45.4892 35.6395C44.9925 35.0841 44.397 34.5858 43.7026 34.1448C43.0082 33.7037 42.2251 33.2872 41.3533 32.8952C40.7146 32.612 40.1419 32.3371 39.635 32.0703C39.1281 31.8034 38.6973 31.5312 38.3425 31.2535C37.9877 30.9758 37.714 30.6817 37.5214 30.3714C37.3288 30.061 37.2324 29.7098 37.2324 29.3177C37.2324 28.9584 37.3186 28.6344 37.491 28.3458C37.6633 28.0572 37.9066 27.8095 38.2208 27.6026C38.5352 27.3957 38.9203 27.235 39.3765 27.1207C39.8327 27.0063 40.3395 26.9492 40.8971 26.9492C41.3025 26.9492 41.7308 26.9819 42.1819 27.0472C42.633 27.1125 43.0867 27.2133 43.5429 27.3493C43.9991 27.4855 44.4425 27.6571 44.8734 27.8639C45.3042 28.0709 45.7021 28.3104 46.067 28.5827V23.6985C45.3271 23.3936 44.5186 23.1676 43.6417 23.0206C42.7649 22.8736 41.7587 22.8 40.6234 22.8C39.4677 22.8 38.3729 22.9335 37.3389 23.2003C36.305 23.4671 35.3952 23.8836 34.6094 24.4499C33.8238 25.0162 33.203 25.7376 32.7468 26.6143C32.2906 27.4909 32.0625 28.5391 32.0625 29.7588C32.0625 31.3161 32.4807 32.6447 33.317 33.7446C34.1533 34.8445 35.423 35.7756 37.1261 36.5379C37.7951 36.832 38.4186 37.1205 38.9964 37.4037C39.5742 37.6868 40.0735 37.9809 40.4941 38.2858C40.9148 38.5907 41.2468 38.9228 41.4902 39.2822C41.7334 39.6415 41.8551 40.0499 41.8551 40.5074C41.8551 40.845 41.779 41.158 41.627 41.4466C41.4749 41.7352 41.2442 41.9856 40.9351 42.198C40.6259 42.4104 40.2407 42.5764 39.7795 42.6962C39.3182 42.8161 38.7784 42.8759 38.16 42.8759C37.1057 42.8759 36.0617 42.6772 35.0276 42.2797C33.9936 41.8822 33.0357 41.286 32.1537 40.491ZM23.9769 27.6118H30.2165V23.3221H12.825V27.6118H19.0341V46.7118H23.9769V27.6118Z" fill="white"/>
</svg>
